<svg xmlns="http://www.w3.org/2000/svg" xmlns:svg="http://www.w3.org/2000/svg" id="svg2" width="510" height="150" version="1.1"><defs id="defs4"><marker id="Arrow1Lend" orient="auto" refX="0" refY="0" style="overflow:visible"><path id="path4261" d="M 0.0,0.0 L 5.0,-5.0 L -12.5,0.0 L 5.0,5.0 L 0.0,0.0 z" transform="scale(0.8) rotate(180) translate(12.5,0)" style="fill-rule:evenodd;stroke:#000;stroke-width:1pt;marker-start:none"/></marker><marker id="Arrow2Lend" orient="auto" refX="0" refY="0" style="overflow:visible"><path id="path4046" d="M 8.7185878,4.0337352 L -2.2072895,0.016013256 L 8.7185884,-4.0017078 C 6.9730900,-1.6296469 6.9831476,1.6157441 8.7185878,4.0337352 z" transform="scale(1.1) rotate(180) translate(1,0)" style="font-size:12;fill-rule:evenodd;stroke-width:.625;stroke-linejoin:round"/></marker><marker id="Arrow1Mend" orient="auto" refX="0" refY="0" style="overflow:visible"><path id="path4034" d="M 0.0,0.0 L 5.0,-5.0 L -12.5,0.0 L 5.0,5.0 L 0.0,0.0 z" transform="scale(0.4) rotate(180) translate(10,0)" style="fill-rule:evenodd;stroke:#000;stroke-width:1pt;marker-start:none"/></marker><marker id="Arrow1Lstart" orient="auto" refX="0" refY="0" style="overflow:visible"><path id="path4025" d="M 0.0,0.0 L 5.0,-5.0 L -12.5,0.0 L 5.0,5.0 L 0.0,0.0 z" transform="scale(0.8) translate(12.5,0)" style="fill-rule:evenodd;stroke:#000;stroke-width:1pt;marker-start:none"/></marker><marker id="Arrow1Mend-4" orient="auto" refX="0" refY="0" style="overflow:visible"><path id="path4034-7" d="M 0,0 5,-5 -12.5,0 5,5 0,0 z" transform="matrix(-0.4,0,0,-0.4,-4,0)" style="fill-rule:evenodd;stroke:#000;stroke-width:1pt;marker-start:none"/></marker><marker id="Arrow1Mend-2" orient="auto" refX="0" refY="0" style="overflow:visible"><path id="path4034-1" d="M 0,0 5,-5 -12.5,0 5,5 0,0 z" transform="matrix(-0.4,0,0,-0.4,-4,0)" style="fill-rule:evenodd;stroke:#000;stroke-width:1pt;marker-start:none"/></marker></defs><metadata id="metadata7"/><g id="layer1" transform="translate(0,-902.36218)"><path style="fill:#87ff87;fill-opacity:1;fill-rule:nonzero;stroke:#00bc00;stroke-width:2;stroke-linecap:round;stroke-linejoin:round;stroke-miterlimit:4;stroke-opacity:1;stroke-dasharray:none" id="rect5340" d="m 71.84375,940.79072 0,14.09375 c -0.04189,-7.3e-4 -0.08293,0 -0.125,0 l -61.53125,0 c -3.878,0 -7,3.122 -7,7 l 0,28.8125 c 0,3.878 3.122,7 7,7 l 61.53125,0 c 0.04207,0 0.08311,7.3e-4 0.125,0 l 0,14.09373 40.5625,-35.49998 -40.5625,-35.5 z"/><text style="font-size:20px;font-style:normal;font-weight:400;line-height:125%;letter-spacing:0;word-spacing:0;fill:#000;fill-opacity:1;stroke:none;font-family:Bitstream Vera Sans" id="text2997" x="10.917" y="982.154" xml:space="preserve"><tspan id="tspan2999" x="10.917" y="982.154">Income</tspan></text><path style="fill:#ff7d69;fill-opacity:1;fill-rule:nonzero;stroke:#bc1600;stroke-width:2;stroke-linecap:round;stroke-linejoin:round;stroke-miterlimit:4;stroke-opacity:1;stroke-dasharray:none" id="rect5340-9" d="m 467.07999,940.79072 0,14.0937 c -0.042,-7e-4 -0.083,0 -0.125,0 l -61.5313,0 c -3.878,0 -7,3.122 -7,7 l 0,28.81253 c 0,3.878 3.122,7 7,7 l 61.5313,0 c 0.042,0 0.083,8e-4 0.125,0 l 0,14.09375 40.5625,-35.49998 -40.5625,-35.5 z"/><text style="font-size:20px;font-style:normal;font-weight:400;line-height:125%;letter-spacing:0;word-spacing:0;fill:#000;fill-opacity:1;stroke:none;font-family:Bitstream Vera Sans" id="text3001" x="400.881" y="982.154" xml:space="preserve"><tspan id="tspan3003" x="400.881" y="982.154">Expenses</tspan></text><rect style="opacity:1;fill:#cfcfcf;fill-opacity:1;fill-rule:nonzero;stroke:#8a8a8a;stroke-width:2.05670190000000019;stroke-miterlimit:4;stroke-opacity:1;stroke-dasharray:none" id="rect2985" width="274.952" height="132.143" x="116.939" y="910.219" rx="7.403" ry="7"/><g id="g3033" transform="translate(-202.5839,-54.406259)"><text id="text2989" x="412.528" y="993.791" xml:space="preserve" style="font-size:22px;font-style:normal;font-weight:400;line-height:125%;letter-spacing:0;word-spacing:0;fill:#000;fill-opacity:1;stroke:none;font-family:Bitstream Vera Sans"><tspan id="tspan2991" x="412.528" y="993.791">Equity</tspan></text><text id="text2993" x="384.429" y="1010.505" xml:space="preserve" style="font-size:14px;font-style:oblique;font-weight:400;line-height:125%;letter-spacing:0;word-spacing:0;fill:#000;fill-opacity:1;stroke:none;font-family:Bitstream Vera Sans;-inkscape-font-specification:Bitstream Vera Sans Oblique"><tspan id="tspan2995" x="384.429" y="1010.505">( Assets - Liabilities )</tspan></text></g><g id="g5033" transform="translate(-5.0135841,-5.4504263)"><rect id="rect2987" width="117.429" height="58.857" x="135.143" y="975.505" rx="7" ry="7" style="fill:#87ff87;fill-opacity:1;fill-rule:nonzero;stroke:#00bc00;stroke-width:2;stroke-miterlimit:4;stroke-opacity:1;stroke-dasharray:none"/><g id="g3021" transform="translate(-8.5234451,11.044167)"><text style="font-size:14px;font-style:oblique;font-weight:400;line-height:125%;letter-spacing:0;word-spacing:0;fill:#000;fill-opacity:1;stroke:none;font-family:Bitstream Vera Sans;-inkscape-font-specification:Bitstream Vera Sans Oblique" id="text3005" x="153.722" y="1010.505" xml:space="preserve"><tspan id="tspan3007" x="153.722" y="1010.505">Positive Value</tspan></text><text style="font-size:22px;font-style:normal;font-weight:400;line-height:125%;letter-spacing:0;word-spacing:0;fill:#000;fill-opacity:1;stroke:none;font-family:Bitstream Vera Sans" id="text3013" x="167.023" y="993.176" xml:space="preserve"><tspan id="tspan3015" x="167.023" y="993.176">Assets</tspan></text></g></g><rect style="fill:#ff7d69;fill-opacity:1;fill-rule:nonzero;stroke:#bc1600;stroke-width:2;stroke-miterlimit:4;stroke-opacity:1;stroke-dasharray:none" id="rect2987-3" width="117.429" height="58.857" x="261.272" y="970.055" rx="7" ry="7"/><g id="g3027" transform="translate(-4.7662468,5.5937407)"><text id="text3009" x="271.911" y="1010.505" xml:space="preserve" style="font-size:14px;font-style:oblique;font-weight:400;line-height:125%;letter-spacing:0;word-spacing:0;fill:#000;fill-opacity:1;stroke:none;font-family:Bitstream Vera Sans;-inkscape-font-specification:Bitstream Vera Sans Oblique"><tspan id="tspan3011" x="271.911" y="1010.505">Negative Value</tspan></text><text id="text3017" x="272.288" y="993.791" xml:space="preserve" style="font-size:22px;font-style:normal;font-weight:400;line-height:125%;letter-spacing:0;word-spacing:0;fill:#000;fill-opacity:1;stroke:none;font-family:Bitstream Vera Sans"><tspan id="tspan3019" x="272.288" y="993.791">Liabilities</tspan></text></g></g></svg>