<svg xmlns="http://www.w3.org/2000/svg" xmlns:svg="http://www.w3.org/2000/svg" id="svg2" width="605.869" height="143.172" version="1.1"><defs id="defs4"><marker id="Arrow1Lend" orient="auto" refX="0" refY="0" style="overflow:visible"><path id="path4261" d="M -10.666667,0 -14.933333,4.2666667 0,0 -14.933333,-4.2666667 Z" style="fill-rule:evenodd;stroke:#000;stroke-width:.85333335pt;marker-start:none"/></marker><marker id="Arrow2Lend" orient="auto" refX="0" refY="0" style="overflow:visible"><path id="path4046" d="M -11.403143,-4.732916 1.416553,-0.01878889 -11.403144,4.6953372 c 2.0480517,-2.7832182 2.0362508,-6.5911436 10e-7,-9.4282532 z" style="font-size:12px;fill-rule:evenodd;stroke-width:.73333335;stroke-linejoin:round"/></marker><marker id="Arrow1Mend" orient="auto" refX="0" refY="0" style="overflow:visible"><path id="path4034" d="M -4.2666667,0 -6.4,2.1333333 1.0666667,0 -6.4,-2.1333333 Z" style="fill-rule:evenodd;stroke:#000;stroke-width:.42666668pt;marker-start:none"/></marker><marker id="Arrow1Lstart" orient="auto" refX="0" refY="0" style="overflow:visible"><path id="path4025" d="M 10.666667,0 14.933333,-4.2666667 0,0 14.933333,4.2666667 Z" style="fill-rule:evenodd;stroke:#000;stroke-width:.85333335pt;marker-start:none"/></marker><marker id="Arrow1Mend-4" orient="auto" refX="0" refY="0" style="overflow:visible"><path id="path4034-7" d="M -4.2666667,0 -6.4,2.1333333 1.0666667,0 -6.4,-2.1333333 Z" style="fill-rule:evenodd;stroke:#000;stroke-width:.42666668pt;marker-start:none"/></marker><marker id="Arrow1Mend-2" orient="auto" refX="0" refY="0" style="overflow:visible"><path id="path4034-1" d="M -4.2666667,0 -6.4,2.1333333 1.0666667,0 -6.4,-2.1333333 Z" style="fill-rule:evenodd;stroke:#000;stroke-width:.42666668pt;marker-start:none"/></marker></defs><metadata id="metadata7"/><g id="layer1" transform="translate(27.479905,-969.79057)" style="display:inline"><g id="g3228" transform="matrix(1.5152555,0,0,1.0004341,-55.775783,-3.6013892)"><path id="rect5340" d="m 66.274344,1003.5101 v 15.0333 c -0.02853,-7e-4 -0.05647,0 -0.08512,0 h -41.89669 c -2.640534,0 -4.766307,3.3302 -4.766307,7.4667 v 30.7333 c 0,4.1366 2.125773,7.4667 4.766307,7.4667 h 41.89669 c 0.02866,0 0.05659,8e-4 0.08512,0 v 15.0333 l 27.619046,-37.8666 z" style="fill:#87ff87;fill-opacity:1;fill-rule:nonzero;stroke:#00bc00;stroke-width:1.70445824;stroke-linecap:round;stroke-linejoin:round;stroke-miterlimit:4;stroke-dasharray:none;stroke-opacity:1"/><text id="text2997" x="31.119" y="868.112" transform="scale(0.82903809,1.2062172)" xml:space="preserve" style="font-style:normal;font-weight:400;font-size:10.61168766px;line-height:0%;font-family:'Bitstream Vera Sans';letter-spacing:0;word-spacing:0;fill:#000;fill-opacity:1;stroke:none;stroke-width:.88430732"><tspan id="tspan2999" x="31.119" y="868.112" style="font-size:16.24399376px;line-height:1.25;stroke-width:.88430732">Erträge</tspan></text></g><g id="g3233" transform="matrix(1.0263139,0,0,0.99580854,-42.819486,2.953591)"><path id="rect5340-9" d="m 555.24611,1004.5143 0.24581,15.0333 c 0,0 0.066,6e-4 0,0 l -112.23314,-1.0042 c -6.09754,-0.055 -11.00673,3.3301 -11.00673,7.4666 v 30.7334 c 0,4.1365 4.909,7.4667 11.00673,7.4667 h 96.75118 c 0.066,0 15.8583,8e-4 15.9243,0 l 0.19654,12.5228 47.85577,-35.3561 z" style="fill:#ff7d69;fill-opacity:1;fill-rule:nonzero;stroke:#bc1600;stroke-width:2.59014726;stroke-linecap:round;stroke-linejoin:round;stroke-miterlimit:4;stroke-dasharray:none;stroke-opacity:1"/><text id="text3001" x="453.048" y="1013.339" transform="scale(0.96634081,1.0348316)" xml:space="preserve" style="font-style:normal;font-weight:400;font-size:12.36916256px;line-height:0%;font-family:'Bitstream Vera Sans';letter-spacing:0;word-spacing:0;fill:#000;fill-opacity:1;stroke:none;stroke-width:1.03076363"><tspan id="tspan3003" x="453.048" y="1013.339" style="font-size:20.15027046px;line-height:1.25;stroke-width:1.03076363">Aufwendungen</tspan></text></g><rect style="fill:#cfcfcf;fill-opacity:1;fill-rule:nonzero;stroke:#8a8a8a;stroke-width:2.23820591;stroke-miterlimit:4;stroke-dasharray:none;stroke-opacity:1" id="rect2985" width="305.31" height="140.934" x="89.753" y="970.91" rx="8.22" ry="7.466"/><g id="g3033" transform="translate(-259.46019,-58.033343)"><text id="text2989" x="425.53" y="1057.543" xml:space="preserve" style="font-style:normal;font-weight:400;font-size:12.80000019px;line-height:0%;font-family:'Bitstream Vera Sans';letter-spacing:0;word-spacing:0;fill:#000;fill-opacity:1;stroke:none;stroke-width:1.06666672"><tspan id="tspan2991" x="425.53" y="1057.543" style="font-size:24px;line-height:1.25;stroke-width:1.06666672">Eigenkapital</tspan></text><text id="text2993" x="419.057" y="1076.872" xml:space="preserve" style="font-style:oblique;font-weight:400;font-size:12.80000019px;line-height:0%;font-family:'Bitstream Vera Sans';-inkscape-font-specification:'Bitstream Vera Sans Oblique';letter-spacing:0;word-spacing:0;fill:#000;fill-opacity:1;stroke:none;stroke-width:1.06666672"><tspan id="tspan2995" x="419.057" y="1076.872" style="font-style:normal;font-variant:normal;font-weight:400;font-stretch:normal;font-size:13.33333397px;line-height:1.25;font-family:'Bitstream Vera Sans';-inkscape-font-specification:'Bitstream Vera Sans';fill:#3f3b3b;fill-opacity:1;stroke-width:1.06666672">( Aktiva - Fremdkapital )</tspan></text></g><g id="g3220" transform="matrix(1.0721558,0,0,1,-51.725078,0)"><rect id="rect2987" width="112.035" height="62.781" x="138.919" y="1034.725" rx="6.678" ry="7.467" style="fill:#87ff87;fill-opacity:1;fill-rule:nonzero;stroke:#00bc00;stroke-width:2.01759338;stroke-miterlimit:4;stroke-dasharray:none;stroke-opacity:1"/><g id="g3185" transform="translate(-13.813521,-5.4858767)"><text style="font-style:oblique;font-weight:400;font-size:12.80000019px;line-height:0%;font-family:'Bitstream Vera Sans';-inkscape-font-specification:'Bitstream Vera Sans Oblique';letter-spacing:0;word-spacing:0;fill:#000;fill-opacity:1;stroke:none;stroke-width:1.06666672" id="text3005" x="160.941" y="1088.653" xml:space="preserve"><tspan id="tspan3007" x="160.941" y="1088.653" style="font-style:normal;font-variant:normal;font-weight:400;font-stretch:normal;font-size:12.8768549px;line-height:1.25;font-family:'Bitstream Vera Sans';-inkscape-font-specification:'Bitstream Vera Sans';fill:#3f3b3b;fill-opacity:1;stroke-width:1.06666672">Positive Werte</tspan></text><text style="font-style:normal;font-weight:400;font-size:12.80000019px;line-height:0%;font-family:'Bitstream Vera Sans';letter-spacing:0;word-spacing:0;fill:#000;fill-opacity:1;stroke:none;stroke-width:1.06666672" id="text3013" x="172.902" y="1068.168" xml:space="preserve"><tspan id="tspan3015" x="172.902" y="1068.168" style="font-size:20.60296631px;line-height:1.25;stroke-width:1.06666672">Aktiva</tspan></text></g></g><g id="g3212" transform="matrix(1.0721558,0,0,1,-56.415403,0)"><rect id="rect2987-3" width="154.082" height="62.781" x="260.981" y="1034.725" rx="9.185" ry="7.467" style="fill:#ff7d69;fill-opacity:1;fill-rule:nonzero;stroke:#bc1600;stroke-width:2.36610079;stroke-miterlimit:4;stroke-dasharray:none;stroke-opacity:1"/><g id="g3165" transform="translate(-22.391772,-1.4476095)"><text style="font-style:oblique;font-weight:400;font-size:12.80000019px;line-height:0%;font-family:'Bitstream Vera Sans';-inkscape-font-specification:'Bitstream Vera Sans Oblique';letter-spacing:0;word-spacing:0;fill:#000;fill-opacity:1;stroke:none;stroke-width:1.06666672" id="text3009" x="303.013" y="1083.839" xml:space="preserve"><tspan id="tspan3157" x="303.013" y="1083.839" style="font-style:normal;font-variant:normal;font-weight:400;font-stretch:normal;font-size:14.16454029px;line-height:1.25;font-family:'Bitstream Vera Sans';-inkscape-font-specification:'Bitstream Vera Sans';fill:#3f3b3b;fill-opacity:1;stroke-width:1.06666672">Negative Werte</tspan></text><text style="font-style:normal;font-weight:400;font-size:20.60296631px;line-height:0%;font-family:'Bitstream Vera Sans';letter-spacing:0;word-spacing:0;fill:#000;fill-opacity:1;stroke:none;stroke-width:1.06666672" id="text3017" x="293.065" y="1063.51" xml:space="preserve"><tspan id="tspan3019" x="293.065" y="1063.51" style="font-size:20.60296631px;line-height:1.25;stroke-width:1.06666672">Fremdkapital</tspan></text></g></g></g></svg>