<svg xmlns="http://www.w3.org/2000/svg" xmlns:svg="http://www.w3.org/2000/svg" id="svg4057" width="588.26" height="141.768" version="1.1" viewBox="0 0 588.26 141.768"><metadata id="metadata4062"/><g id="layer1" transform="translate(-77.298668,-41.478352)"><g style="visibility:visible" id="Slide_1_page1" transform="matrix(0.03543307,0,0,0.03543307,-4.1796914,-47.086606)" visibility="visible"><g id="Drawing_1"><path style="fill:#6f6;stroke:none" id="path3927" d="m 2300,3800 2475,0 0,-700 826,1400 -826,1401 0,-701 -2475,0 0,-1400 z"/><path style="fill:none;stroke:#093;stroke-linejoin:round" id="path3929" d="m 2300,3800 2475,0 0,-700 826,1400 -826,1401 0,-701 -2475,0 0,-1400 z"/><rect style="fill:none;stroke:none" id="rect3931" width="3301" height="2801" x="2300" y="3100"/><g style="font-style:normal;font-weight:700;font-size:635px;font-family:'Arimo embedded';fill:#3c3c3c;stroke:none" id="g3933" font-size="635" font-style="normal" font-weight="700"><text id="text3935" x="2618" y="4721"><tspan id="tspan3937" x="2618 3075 3427 3778 4129 4307 4519">Receita</tspan></text></g></g><g id="Drawing_2"><path style="fill:#f66;stroke:none" id="path3940" d="m 15352,3800 2661,0 0,-700 888,1400 -888,1401 0,-701 -2661,0 0,-1400 z"/><path style="fill:none;stroke:#c00;stroke-linejoin:round" id="path3942" d="m 15352,3800 2661,0 0,-700 888,1400 -888,1401 0,-701 -2661,0 0,-1400 z"/><rect style="fill:none;stroke:none" id="rect3944" width="3549" height="2801" x="15352" y="3100"/><g style="font-style:normal;font-weight:700;font-size:635px;font-family:'Arimo embedded';fill:#3c3c3c;stroke:none" id="g3946" font-size="635" font-style="normal" font-weight="700"><text id="text3948" x="15603" y="4721"><tspan id="tspan3950" x="15603 16060 16412 16763 17152 17504 17855">Despesa</tspan></text></g></g><g id="Drawing_3"><path style="fill:#ccc;stroke:none" id="path3953" d="m 10450,6500 4250,0 c 276,0 500,-224 500,-500 l 0,-3000 c 0,-276 -224,-500 -500,-500 l -8500,0 c -276,0 -500,224 -500,500 l 0,3000 c 0,276 224,500 500,500 l 4250,0 z"/><path style="fill:none;stroke:gray;stroke-linejoin:round" id="path3955" d="m 10450,6500 4250,0 c 276,0 500,-224 500,-500 l 0,-3000 c 0,-276 -224,-500 -500,-500 l -8500,0 c -276,0 -500,224 -500,500 l 0,3000 c 0,276 224,500 500,500 l 4250,0 z"/><g style="font-style:normal;font-weight:700;font-size:635px;font-family:'Arimo embedded';fill:#3c3c3c;stroke:none" id="g3957" font-size="635" font-style="normal" font-weight="700"><text id="text3959" x="8190" y="3201"><tspan id="tspan3961" x="8190 8647 8999 9388 9566 9778 10129 10307 10484 10874 11119 11509 11898 12144 12322">Capital próprio</tspan></text></g><g style="font-style:italic;font-weight:400;font-size:635px;font-family:'Arimo embedded';fill:#3c3c3c;stroke:none" id="g3963" font-size="635" font-style="italic" font-weight="400"><text id="text3965" x="8141" y="3912"><tspan id="tspan3967" x="8141 8353 8776 8954 9094 9411 9762 9940 10152 10330 10753 11104 11422 11739 11879 12197 12548">(Ativo - Passivo)</tspan></text></g></g><g id="Drawing_4"><path style="fill:#6f6;stroke:none" id="path3970" d="m 8150,6200 1950,0 c 166,0 300,-134 300,-300 l 0,-1200 c 0,-166 -134,-300 -300,-300 l -3900,0 c -166,0 -300,134 -300,300 l 0,1200 c 0,166 134,300 300,300 l 1950,0 z"/><path style="fill:none;stroke:#093;stroke-linejoin:round" id="path3972" d="m 8150,6200 1950,0 c 166,0 300,-134 300,-300 l 0,-1200 c 0,-166 -134,-300 -300,-300 l -3900,0 c -166,0 -300,134 -300,300 l 0,1200 c 0,166 134,300 300,300 l 1950,0 z"/><g style="font-style:normal;font-weight:700;font-size:635px;font-family:'Arimo embedded';fill:#3c3c3c;stroke:none" id="g3974" font-size="635" font-style="normal" font-weight="700"><text id="text3976" x="7356" y="5165"><tspan id="tspan3978" x="7356 7813 8025 8203 8554">Ativo</tspan></text></g><g style="font-style:italic;font-weight:400;font-size:635px;font-family:'Arimo embedded';fill:#3c3c3c;stroke:none" id="g3980" font-size="635" font-style="italic" font-weight="400"><text id="text3982" x="6226" y="5876"><tspan id="tspan3984" x="6226 6624 6975 7115 7466 7678 7856 8279 8631 8948 9088 9266 9405 9723">Valor Positivo</tspan></text></g></g><g id="Drawing_5"><path style="fill:#f66;stroke:none" id="path3987" d="m 12750,6200 1950,0 c 166,0 300,-134 300,-300 l 0,-1200 c 0,-166 -134,-300 -300,-300 l -3900,0 c -166,0 -300,134 -300,300 l 0,1200 c 0,166 134,300 300,300 l 1950,0 z"/><path style="fill:none;stroke:#c00;stroke-linejoin:round" id="path3989" d="m 12750,6200 1950,0 c 166,0 300,-134 300,-300 l 0,-1200 c 0,-166 -134,-300 -300,-300 l -3900,0 c -166,0 -300,134 -300,300 l 0,1200 c 0,166 134,300 300,300 l 1950,0 z"/><g style="font-style:italic;font-weight:700;font-size:635px;font-family:'Arimo embedded';fill:#3c3c3c;stroke:none" id="g3991" font-size="635" font-style="italic" font-weight="700"><text id="text3993" x="11552" y="5165"><tspan id="tspan3995" x="11552 11975 12327 12678 13029 13207 13559">Passivo</tspan></text></g><g style="font-style:italic;font-weight:400;font-size:635px;font-family:'Arimo embedded';fill:#3c3c3c;stroke:none" id="g3997" font-size="635" font-style="italic" font-weight="400"><text id="text3999" x="10686" y="5876"><tspan id="tspan4001" x="10686 11084 11435 11575 11926 12138 12316 12773 13124 13476 13827 14005 14145 14462">Valor Negativo</tspan></text></g></g></g></g></svg>